<svg xmlns="http://www.w3.org/2000/svg" width="113" height="113" viewBox="0 0 113 113"><defs><style>.a{fill:#00acee;fill-rule:evenodd;}</style></defs><path class="a" d="M56.5,0A56.5,56.5,0,1,1,0,56.5,56.527,56.527,0,0,1,56.5,0ZM46.548,86.55c25,0,38.672-20.717,38.672-38.672,0-.592,0-1.184-.028-1.748a27.843,27.843,0,0,0,6.793-7.047,27.583,27.583,0,0,1-7.808,2.142A13.584,13.584,0,0,0,90.153,33.7,27.528,27.528,0,0,1,81.528,37,13.6,13.6,0,0,0,58.02,46.3a12.459,12.459,0,0,0,.366,3.1A38.557,38.557,0,0,1,30.369,35.194,13.585,13.585,0,0,0,34.6,53.318a13.352,13.352,0,0,1-6.145-1.691V51.8A13.607,13.607,0,0,0,39.361,65.129a13.556,13.556,0,0,1-3.58.479,12.963,12.963,0,0,1-2.565-.254A13.571,13.571,0,0,0,45.9,74.8,27.321,27.321,0,0,1,29.016,80.6a24.736,24.736,0,0,1-3.241-.2A37.869,37.869,0,0,0,46.548,86.55Z"/></svg>